<?xml version="1.0" standalone="no"?>
<!DOCTYPE svg PUBLIC "-//W3C//DTD SVG 20010904//EN"
 "http://www.w3.org/TR/2001/REC-SVG-20010904/DTD/svg10.dtd">
<svg version="1.0" xmlns="http://www.w3.org/2000/svg"
 width="1657.000000pt" height="488.000000pt" viewBox="0 0 1657.000000 488.000000"
 preserveAspectRatio="xMidYMid meet">

<g transform="translate(0.000000,488.000000) scale(0.100000,-0.100000)"
fill="#000000" stroke="none">
<path d="M13775 4258 c-2 -7 -11 -56 -20 -108 -28 -171 -20 -168 -86 -39 -33
62 -63 116 -67 120 -4 4 -19 5 -33 2 l-26 -5 23 -141 c13 -78 24 -145 24 -149
0 -14 30 -9 30 5 0 6 -9 66 -20 132 -10 65 -17 121 -15 123 2 2 32 -51 67
-117 84 -161 94 -160 123 14 10 61 21 116 25 123 4 8 16 -44 28 -113 11 -70
23 -130 27 -133 3 -3 10 -1 15 4 6 6 2 59 -13 149 -22 139 -22 140 -50 143
-16 2 -29 -2 -32 -10z"/>
<path d="M14085 4118 c4 -84 8 -154 8 -155 1 0 15 -3 32 -5 29 -3 30 -2 74
117 l46 120 7 -40 c4 -22 8 -67 9 -100 3 -100 10 -120 43 -120 27 0 30 5 71
120 62 175 60 167 39 163 -12 -2 -29 -37 -58 -126 -23 -68 -46 -123 -51 -123
-6 0 -15 60 -21 133 -7 73 -12 134 -13 136 0 1 -9 2 -20 2 -14 0 -28 -27 -66
-125 -26 -69 -51 -125 -55 -125 -5 0 -11 63 -15 140 -6 115 -10 140 -23 140
-13 0 -14 -20 -7 -152z"/>
<path d="M13280 4147 c0 -14 97 -268 106 -276 2 -3 9 0 14 5 13 13 -90 284
-107 284 -7 0 -13 -6 -13 -13z"/>
<path d="M14601 4004 c-68 -85 -90 -119 -82 -127 8 -8 19 -2 39 22 l27 33 58
-26 59 -26 -4 -42 c-2 -33 1 -43 12 -43 11 0 19 34 35 152 l21 152 -24 10
c-12 6 -29 11 -36 11 -7 0 -54 -52 -105 -116z m124 21 c-3 -35 -10 -75 -13
-89 l-7 -25 -48 21 c-55 24 -55 26 5 103 59 74 72 72 63 -10z"/>
<path d="M12964 3998 c-23 -13 -52 -30 -65 -39 l-24 -16 65 -106 c35 -59 72
-116 81 -129 l17 -22 44 28 c104 68 115 98 69 191 -36 72 -80 115 -119 115
-15 0 -46 -10 -68 -22z m95 -24 c39 -27 81 -104 81 -146 0 -33 -5 -42 -42 -68
-22 -16 -44 -30 -47 -30 -6 0 -131 195 -131 204 0 9 85 56 100 56 9 0 26 -7
39 -16z"/>
<path d="M14952 3836 c-85 -119 -94 -136 -76 -143 6 -2 46 46 89 106 44 61 81
109 83 106 2 -2 -10 -67 -28 -146 -30 -141 -30 -143 -11 -162 10 -11 24 -17
29 -13 6 3 48 58 93 122 60 85 79 118 70 127 -6 6 -12 9 -14 6 -2 -2 -36 -50
-76 -106 -78 -111 -98 -131 -88 -92 31 125 58 263 53 274 -2 7 -13 18 -24 24
-17 9 -29 -3 -100 -103z"/>
<path d="M12655 3780 c-3 -5 33 -47 80 -92 94 -91 103 -117 63 -162 -47 -50
-61 -46 -159 50 -69 68 -92 85 -101 76 -10 -10 5 -30 67 -92 97 -98 124 -111
173 -84 46 25 75 66 75 104 0 26 -15 47 -89 121 -49 49 -92 89 -96 89 -4 0 -9
-4 -13 -10z"/>
<path d="M15367 3644 c-3 -4 17 -33 45 -65 28 -33 49 -61 47 -64 -3 -2 -59 -9
-124 -15 -150 -14 -165 -17 -171 -35 -8 -20 115 -160 129 -146 7 7 -8 30 -42
70 -36 41 -48 62 -39 65 7 3 69 10 138 16 129 12 166 22 153 43 -13 23 -115
137 -123 137 -3 0 -9 -3 -13 -6z"/>
<path d="M12318 3371 l-16 -30 106 -115 c71 -79 108 -112 113 -104 5 7 -2 26
-17 45 l-25 33 33 55 c27 45 36 54 53 48 30 -10 60 -9 63 2 3 9 -255 95 -283
95 -5 0 -17 -13 -27 -29z m155 -38 c15 -3 30 -9 33 -14 4 -8 -43 -99 -51 -99
-11 0 -116 131 -111 139 4 6 24 5 54 -5 26 -8 59 -17 75 -21z"/>
<path d="M15505 3245 c-66 -41 -120 -80 -120 -87 0 -21 23 -11 147 65 107 66
129 86 102 94 -5 1 -63 -31 -129 -72z"/>
<path d="M12156 3025 c-21 -22 -65 -140 -55 -149 2 -2 66 -24 142 -49 96 -32
139 -42 142 -34 45 125 46 154 5 195 -35 36 -107 62 -167 62 -34 0 -49 -6 -67
-25z m174 -35 c55 -28 68 -57 51 -118 -7 -25 -13 -48 -15 -49 -2 -2 -167 51
-223 72 -15 5 8 79 35 108 22 24 91 18 152 -13z"/>
<path d="M15593 3007 c-93 -7 -123 -13 -123 -23 0 -10 13 -14 43 -14 l42 0 23
-62 c17 -48 19 -64 10 -69 -35 -20 -50 -37 -47 -52 3 -14 30 1 124 68 66 48
123 90 128 94 4 4 2 22 -4 39 -12 36 3 35 -196 19z m167 -31 c0 -14 -127 -113
-134 -105 -8 9 -36 82 -36 95 0 9 19 14 63 17 34 2 72 4 85 5 13 1 22 -4 22
-12z"/>
<path d="M13916 2918 c-56 -119 -96 -296 -96 -425 0 -60 3 -68 39 -111 53 -64
69 -99 83 -181 7 -39 15 -71 19 -71 3 0 9 26 13 57 8 72 37 136 87 195 35 42
39 52 39 103 0 70 -16 176 -41 280 -21 84 -83 225 -99 225 -5 0 -25 -33 -44
-72z"/>
<path d="M890 2371 l0 -521 198 0 c109 0 225 5 257 11 209 39 297 196 297 529
-1 269 -61 405 -211 474 -42 19 -67 21 -293 24 l-248 4 0 -521z m464 407 c55
-17 119 -82 140 -144 29 -86 41 -232 28 -348 -15 -135 -42 -209 -101 -267 -58
-59 -108 -71 -287 -67 l-129 3 -3 418 -2 417 156 0 c95 0 173 -5 198 -12z"/>
<path d="M1895 2388 c-76 -277 -140 -511 -143 -520 -4 -16 3 -18 51 -18 l56 0
20 68 c11 37 28 97 38 135 l18 67 224 -2 225 -3 19 -65 c10 -36 27 -95 38
-132 l20 -68 55 0 c48 0 55 2 50 18 -3 9 -67 243 -142 520 l-137 502 -127 0
-127 0 -138 -502z m385 117 l77 -280 -195 -3 c-107 -1 -196 -1 -198 0 -2 3
136 511 151 556 3 9 19 12 46 10 l42 -3 77 -280z"/>
<path d="M2722 2473 c3 -416 3 -418 27 -471 29 -64 81 -111 153 -137 73 -28
279 -29 355 -2 74 26 137 85 164 155 22 55 23 70 27 465 l4 407 -61 0 -61 0 0
-398 c0 -393 0 -398 -22 -442 -41 -81 -121 -115 -254 -108 -105 6 -161 36
-196 105 -23 48 -23 52 -26 446 l-3 397 -55 0 -55 0 3 -417z"/>
<path d="M3700 2370 l0 -522 233 4 c210 4 237 6 287 26 101 40 168 128 207
272 25 93 25 378 -1 470 -35 125 -80 186 -174 232 l-66 33 -243 3 -243 3 0
-521z m497 391 c49 -28 85 -77 110 -152 26 -77 26 -368 1 -450 -25 -80 -74
-149 -128 -179 -42 -23 -56 -25 -207 -28 l-163 -4 0 422 0 422 173 -4 c161 -3
175 -5 214 -27z"/>
<path d="M4670 2370 l0 -520 55 0 55 0 0 520 0 520 -55 0 -55 0 0 -520z"/>
<path d="M5040 2370 l0 -520 55 0 55 0 0 460 c0 361 3 460 13 460 7 0 72 -176
162 -440 l150 -440 65 0 65 0 150 440 c90 264 155 440 163 440 9 0 12 -99 12
-460 l0 -460 55 0 55 0 0 520 0 520 -103 0 -102 0 -143 -430 c-79 -236 -147
-432 -151 -434 -4 -3 -72 191 -151 430 l-145 434 -102 0 -103 0 0 -520z"/>
<path d="M6220 2886 c0 -2 47 -234 105 -517 58 -283 105 -515 105 -516 0 -4
210 -4 210 0 2 17 199 881 200 877 1 -3 46 -201 99 -440 l98 -435 106 -3 c59
-1 107 1 107 6 0 5 47 239 104 521 l104 511 -59 0 c-58 0 -58 0 -64 -32 -4
-18 -44 -229 -89 -468 -76 -403 -84 -435 -103 -438 -14 -2 -23 3 -27 15 -8 26
-206 896 -206 905 0 5 -31 8 -69 8 -66 0 -69 -1 -75 -26 -4 -15 -50 -213 -102
-442 -52 -228 -97 -425 -100 -438 -7 -26 -41 -34 -49 -11 -5 13 -175 906 -175
920 0 4 -27 7 -60 7 -33 0 -60 -2 -60 -4z"/>
<path d="M7655 2383 c-76 -280 -140 -514 -143 -521 -3 -10 9 -12 53 -10 l58 3
36 130 36 130 225 3 225 2 24 -87 c13 -49 30 -109 38 -135 l14 -48 54 0 c30 0
55 2 55 5 0 3 -63 234 -140 514 -77 281 -140 512 -140 515 0 3 -58 6 -128 6
l-128 0 -139 -507z m386 122 c43 -154 78 -281 79 -282 0 -2 -88 -3 -195 -3
-166 0 -195 2 -195 15 0 14 117 447 141 523 10 31 13 33 52 30 l40 -3 78 -280z"/>
<path d="M8500 2370 l0 -520 55 0 55 0 0 470 c0 441 1 470 18 470 13 0 63
-108 217 -468 l201 -467 107 -3 107 -3 0 521 0 520 -55 0 -55 0 -2 -467 c-3
-416 -5 -468 -19 -471 -12 -2 -62 108 -215 468 l-199 470 -107 0 -108 0 0
-520z"/>
<path d="M9450 2840 l0 -50 276 0 c263 0 276 -1 272 -18 -3 -10 -127 -192
-277 -405 l-271 -386 0 -66 0 -65 340 0 340 0 0 50 0 50 -270 0 c-225 0 -272
2 -276 14 -3 9 107 175 270 406 l276 391 0 64 0 65 -340 0 -340 0 0 -50z"/>
<path d="M10320 2370 l0 -521 58 3 57 3 3 518 2 517 -60 0 -60 0 0 -520z"/>
<path d="M10746 2382 c-76 -279 -141 -513 -144 -520 -3 -10 9 -12 54 -10 l58
3 36 130 37 130 225 3 225 2 22 -82 c12 -46 29 -107 37 -135 l15 -53 56 0 55
0 -7 28 c-3 15 -62 230 -130 477 -68 248 -128 469 -134 493 l-12 42 -127 0
-127 0 -139 -508z m381 143 c39 -143 74 -270 78 -282 l5 -23 -195 0 c-152 0
-195 3 -195 13 0 10 123 466 146 540 5 14 14 17 47 15 l41 -3 73 -260z"/>
<path d="M13378 2689 c-7 -60 8 -156 32 -222 17 -46 25 -56 51 -61 57 -11 181
-66 252 -112 40 -26 103 -79 140 -118 l69 -71 -26 69 c-36 95 -97 215 -151
296 -85 128 -228 240 -327 256 l-36 6 -4 -43z"/>
<path d="M14449 2711 c-166 -65 -327 -269 -428 -544 l-21 -58 73 73 c109 111
234 184 369 218 45 12 49 15 67 64 28 75 42 163 35 218 -8 56 -19 59 -95 29z"/>
<path d="M12153 2424 c-33 -16 -63 -66 -63 -104 0 -91 121 -144 190 -82 61 54
47 158 -25 188 -43 18 -62 17 -102 -2z"/>
<path d="M15658 2425 c-35 -20 -58 -64 -58 -111 0 -51 53 -104 104 -104 79 0
135 63 122 135 -14 70 -107 115 -168 80z"/>
<path d="M13167 2391 c-20 -4 -39 -10 -42 -13 -12 -12 54 -117 109 -175 l61
-63 75 11 c131 18 300 -11 418 -70 58 -29 92 -32 92 -8 0 31 -197 185 -310
242 -129 65 -300 98 -403 76z"/>
<path d="M14568 2390 c-107 -19 -224 -70 -331 -142 -82 -56 -197 -156 -197
-172 0 -27 30 -25 90 5 120 60 289 87 420 69 l75 -10 60 64 c70 74 122 166
100 179 -22 12 -165 17 -217 7z"/>
<path d="M13362 2095 c-82 -18 -194 -74 -255 -126 l-48 -42 28 -29 c45 -47
153 -114 219 -137 130 -43 269 -37 414 21 75 29 220 113 220 127 0 8 -108 88
-162 119 -121 69 -289 96 -416 67z"/>
<path d="M14313 2096 c-34 -8 -93 -30 -132 -49 -70 -35 -201 -125 -201 -138 0
-4 34 -29 75 -54 155 -97 320 -138 463 -117 95 15 215 71 290 138 l53 47 -28
29 c-41 43 -131 95 -215 124 -90 32 -216 40 -305 20z"/>
<path d="M12308 1842 l-136 -47 23 -64 c32 -88 52 -106 118 -105 59 0 133 30
165 65 15 15 22 35 21 58 -1 42 -31 134 -45 137 -5 1 -70 -19 -146 -44z m150
-31 c25 -81 12 -108 -67 -136 -53 -18 -111 -19 -134 -2 -14 10 -52 96 -45 102
6 5 214 73 224 74 6 1 16 -16 22 -38z"/>
<path d="M15436 1821 c-3 -4 -10 -20 -15 -34 -10 -25 -6 -30 107 -110 144
-103 139 -100 145 -83 4 9 -7 23 -28 37 l-33 23 23 61 22 60 40 -3 c28 -2 42
1 46 11 6 17 -25 23 -168 32 -49 4 -100 8 -112 11 -12 2 -24 0 -27 -5z m156
-37 l37 -6 -20 -52 c-12 -28 -21 -52 -22 -53 -5 -4 -137 99 -137 107 0 11 85
13 142 4z"/>
<path d="M15312 1537 c-8 -9 22 -32 120 -91 101 -61 132 -76 139 -65 4 7 7 14
6 15 -1 1 -196 119 -248 150 -4 2 -11 -2 -17 -9z"/>
<path d="M12575 1495 c-22 -8 -86 -28 -143 -45 -63 -19 -100 -35 -96 -41 4 -7
23 -8 49 -5 l43 7 31 -51 c32 -53 32 -59 -2 -98 -14 -15 -17 -26 -11 -32 12
-12 214 198 214 222 0 16 -28 58 -38 57 -4 0 -25 -7 -47 -14z m55 -34 c0 -4
-26 -37 -58 -71 l-57 -63 -28 41 c-15 23 -27 46 -27 51 0 10 112 48 148 50 12
1 22 -3 22 -8z"/>
<path d="M15153 1317 c-39 -46 -58 -76 -52 -82 6 -6 29 12 62 50 30 32 56 55
59 49 3 -5 20 -68 38 -141 35 -144 49 -163 85 -120 11 13 38 45 59 71 26 31
36 50 29 57 -7 7 -26 -9 -57 -46 -26 -30 -51 -55 -56 -55 -4 0 -23 61 -41 136
-22 88 -39 139 -50 144 -12 7 -29 -8 -76 -63z"/>
<path d="M12707 1182 c-104 -104 -110 -127 -51 -192 30 -33 43 -40 75 -40 34
0 47 9 129 86 74 71 88 89 78 101 -9 12 -26 0 -97 -71 -97 -97 -120 -104 -164
-58 -43 45 -36 65 58 162 74 75 90 100 66 100 -4 0 -46 -39 -94 -88z"/>
<path d="M14974 1126 c-3 -8 29 -61 71 -121 43 -58 75 -108 73 -110 -2 -2 -58
30 -125 71 -67 41 -128 74 -135 74 -7 0 -21 -7 -32 -15 -17 -13 -13 -21 69
-134 47 -67 90 -121 95 -121 25 0 12 26 -59 126 -44 60 -77 111 -76 113 2 1
61 -31 130 -73 69 -42 130 -76 134 -76 4 0 16 9 25 19 16 18 13 24 -69 140
-48 67 -89 121 -91 121 -3 0 -7 -6 -10 -14z"/>
<path d="M13000 908 c-41 -67 -76 -125 -78 -129 -5 -12 123 -79 151 -79 35 0
100 58 126 114 23 46 27 96 11 126 -8 15 -118 90 -131 90 -2 0 -38 -55 -79
-122z m168 29 c27 -25 28 -56 3 -105 -48 -95 -97 -118 -166 -78 l-44 27 40 65
c22 36 51 84 65 106 l25 40 27 -18 c15 -9 37 -26 50 -37z"/>
<path d="M14573 888 c-13 -6 -23 -20 -23 -32 1 -33 38 -277 44 -283 13 -13 24
11 19 45 l-5 39 58 26 59 26 26 -30 c25 -29 49 -38 49 -19 0 16 -181 240 -193
239 -7 0 -22 -5 -34 -11z m84 -86 l53 -67 -51 -23 c-29 -12 -53 -21 -54 -20
-7 7 -25 161 -19 169 10 16 18 9 71 -59z"/>
<path d="M13361 719 c-56 -143 -57 -149 -37 -149 11 0 116 246 116 273 0 4 -6
7 -14 7 -9 0 -33 -49 -65 -131z"/>
<path d="M14347 803 c-4 -3 -7 -56 -8 -117 -1 -61 -4 -122 -9 -136 -7 -24 -8
-24 -25 15 -10 22 -32 78 -50 125 -24 64 -37 86 -52 88 -22 3 -24 -5 -39 -195
-4 -46 -10 -83 -14 -83 -4 0 -27 59 -51 130 -35 104 -48 130 -62 130 -10 0
-17 -4 -15 -8 2 -5 25 -70 52 -145 51 -140 57 -148 100 -131 12 5 16 22 17 68
1 33 4 90 8 126 8 74 6 77 61 -70 16 -41 31 -82 34 -91 5 -10 16 -14 36 -11
l28 4 6 97 c4 53 8 122 11 154 4 43 1 57 -8 57 -8 0 -17 -3 -20 -7z"/>
<path d="M13582 658 c-26 -168 -26 -158 -8 -158 9 0 18 21 25 65 36 211 34
202 42 170 5 -16 16 -78 26 -137 15 -97 19 -108 37 -108 16 0 34 26 81 115 33
63 63 115 66 115 3 0 -3 -48 -12 -107 -22 -132 -23 -153 -6 -153 10 0 20 39
36 133 27 169 28 167 -8 167 -26 0 -33 -9 -87 -114 -33 -63 -62 -112 -65 -108
-4 4 -14 59 -24 122 -18 115 -29 140 -65 140 -13 0 -20 -26 -38 -142z"/>
</g>
</svg>
